<svg aria-hidden="true" style="position: absolute; width: 0; height: 0; overflow: hidden;" version="1.1" xmlns="http://www.w3.org/2000/svg" xmlns:xlink="http://www.w3.org/1999/xlink">
<defs>
<symbol id="icon-key" viewBox="0 0 27 32">
<path stroke-linejoin="miter" stroke-linecap="butt" stroke-miterlimit="4" stroke-width="1.6842" d="M0.842 10.947h25.263v20.211h-25.263v-20.211z"></path>
<path stroke-linejoin="miter" stroke-linecap="butt" stroke-miterlimit="4" stroke-width="1.6842" d="M21.895 10.105c0-2.233-0.887-4.375-2.467-5.955s-3.721-2.466-5.955-2.466-4.375 0.887-5.955 2.466c-1.579 1.579-2.466 3.721-2.466 5.955"></path>
</symbol>
<symbol id="icon-heart" viewBox="0 0 37 32">
<path stroke-linejoin="miter" stroke-linecap="round" stroke-miterlimit="4" stroke-width="1.7778" d="M4.121 4.121c3.124-3.124 8.19-3.124 11.314 0l3.232 3.232 3.232-3.232c3.124-3.124 8.189-3.124 11.314 0s3.124 8.19 0 11.314l-14.546 14.546-14.546-14.546c-3.124-3.124-3.124-8.19 0-11.314z"></path>
</symbol>
<symbol id="icon-user" viewBox="0 0 28 32">
<path d="M26.539 30.222h-24.634c0.148-1.023 0.422-2.025 0.82-2.985 0.625-1.51 1.542-2.882 2.698-4.037s2.527-2.072 4.037-2.698c1.51-0.625 3.128-0.947 4.762-0.947s3.252 0.322 4.762 0.947c1.51 0.625 2.882 1.542 4.037 2.698s2.072 2.527 2.698 4.037c0.397 0.959 0.672 1.962 0.82 2.985zM28.333 30.222c-0.158-1.257-0.484-2.49-0.971-3.665-0.715-1.726-1.762-3.293-3.083-4.614s-2.889-2.368-4.614-3.083c-1.726-0.715-3.575-1.083-5.443-1.083s-3.717 0.368-5.443 1.083c-1.726 0.715-3.293 1.762-4.614 3.083s-2.368 2.889-3.083 4.614c-0.487 1.175-0.813 2.408-0.971 3.665-0.074 0.588-0.112 1.182-0.112 1.778h28.444c0-0.596-0.037-1.189-0.111-1.778z"></path>
<path d="M14.222 12.444c-2.945 0-5.333-2.388-5.333-5.333s2.388-5.333 5.333-5.333c2.945 0 5.333 2.388 5.333 5.333s-2.388 5.333-5.333 5.333zM14.222 14.222c3.927 0 7.111-3.184 7.111-7.111s-3.184-7.111-7.111-7.111c-3.927 0-7.111 3.184-7.111 7.111s3.184 7.111 7.111 7.111z"></path>
</symbol>
<symbol id="icon-Logo" viewBox="0 0 258 32">
<path d="M20.838 31.569l-2.022-5.519h-13.33l-2.169 5.519h-3.318l12.465-31.569 11.74 31.569h-3.367zM12.319 7.917l-5.919 15.541h11.455l-5.536-15.541z"></path>
<path d="M41.383 31.569v-30.464h3.22v27.774h9.482v2.69h-12.702z"></path>
<path d="M71.834 31.569v-30.464h3.22v27.774h9.482v2.69h-12.702z"></path>
<path d="M102.291 31.569v-30.464h15.107v2.829h-11.887v7.242h8.087v2.731h-8.087v15.012h12.416v2.642l-15.637 0.008z"></path>
<path d="M150.939 32c-8.609-0.049-16.314-4.795-16.314-14.972 0-9.55 7.509-16.402 17.463-16.402 0.53 0 1.060 0 1.59 0.049v2.829c-0.579-0.049-1.158-0.098-1.728-0.098-7.794 0.049-14.194 4.893-14.194 13.623 0 8.632 6.881 12.33 13.085 12.33 0.432 0 0.864 0 1.296-0.049v-16.744h-6.596v-2.495h9.62v21.539c-1.386 0.244-2.829 0.39-4.223 0.39z"></path>
<path d="M189.387 24.23l4.859 7.34h-3.563l-3.995-6.185c-1.296 0.528-3.18 0.959-5.104 0.959-0.962 0-2.022-0.098-2.935-0.285v5.519h-3.179v-30.472h5.674c9.963 0 13.86 5.852 13.86 13.045 0.008 3.601-1.337 7.388-5.617 10.079zM181.781 3.739h-3.131v19.572c1.060 0.333 1.924 0.48 3.082 0.48 1.207 0 2.65-0.195 3.514-0.626l-2.739-4.080 2.454-1.536 2.886 4.365c2.405-1.439 4.182-4.080 4.182-7.388 0-7.762-5.095-10.786-10.248-10.786z"></path>
<path d="M213.78 31.569v-30.464h3.178v30.464h-3.178z"></path>
<path d="M254.634 31.569l-2.022-5.519h-13.33l-2.168 5.519h-3.32l12.466-31.569 11.74 31.569h-3.366zM246.114 7.917l-5.92 15.541h11.456l-5.536-15.541z"></path>
</symbol>
<symbol id="icon-left" viewBox="0 0 14 32">
<path fill="none" stroke="#254a5a" style="stroke: var(--color1, #254a5a)" stroke-linejoin="miter" stroke-linecap="butt" stroke-miterlimit="4" stroke-width="0.7805" d="M13.268 0.78l-12.488 15.22 12.488 15.22"></path>
</symbol>
<symbol id="icon-right" viewBox="0 0 14 32">
<path fill="none" stroke="#254a5a" style="stroke: var(--color1, #254a5a)" stroke-linejoin="miter" stroke-linecap="butt" stroke-miterlimit="4" stroke-width="0.7805" d="M0.78 0.78l12.488 15.22-12.488 15.22"></path>
</symbol>
</defs>
</svg>
